<svg width="16" height="16" viewBox="0 0 16 16" fill="none" xmlns="http://www.w3.org/2000/svg">
<path d="M8.52163 9.99992H7.47863C7.42911 9.99983 7.38069 10.0144 7.3395 10.0419C7.2983 10.0694 7.26619 10.1085 7.24723 10.1542C7.22827 10.1999 7.22332 10.2503 7.23301 10.2988C7.24269 10.3474 7.26657 10.392 7.30163 10.4269L7.82313 10.9479C7.87001 10.9948 7.93358 11.0211 7.99988 11.0211C8.06617 11.0211 8.12974 10.9948 8.17663 10.9479L8.69813 10.4269C8.73315 10.392 8.75702 10.3474 8.76672 10.2989C8.77642 10.2504 8.77151 10.2001 8.75261 10.1544C8.73372 10.1087 8.70168 10.0696 8.66056 10.0421C8.61945 10.0146 8.57109 9.99993 8.52163 9.99992ZM5.25013 8.54692C5.25013 8.38116 5.31597 8.22219 5.43318 8.10498C5.55039 7.98777 5.70936 7.92192 5.87513 7.92192C6.04089 7.92192 6.19986 7.98777 6.31707 8.10498C6.43428 8.22219 6.50013 8.38116 6.50013 8.54692V9.29692C6.50013 9.46268 6.43428 9.62165 6.31707 9.73886C6.19986 9.85607 6.04089 9.92192 5.87513 9.92192C5.70936 9.92192 5.55039 9.85607 5.43318 9.73886C5.31597 9.62165 5.25013 9.46268 5.25013 9.29692V8.54692ZM9.50013 8.54692C9.50013 8.46485 9.51629 8.38357 9.5477 8.30775C9.57911 8.23192 9.62515 8.16302 9.68318 8.10498C9.74122 8.04694 9.81012 8.00091 9.88595 7.9695C9.96178 7.93809 10.043 7.92192 10.1251 7.92192C10.2072 7.92192 10.2885 7.93809 10.3643 7.9695C10.4401 8.00091 10.509 8.04694 10.5671 8.10498C10.6251 8.16302 10.6711 8.23192 10.7026 8.30775C10.734 8.38357 10.7501 8.46485 10.7501 8.54692V9.29692C10.7501 9.46268 10.6843 9.62165 10.5671 9.73886C10.4499 9.85607 10.2909 9.92192 10.1251 9.92192C9.95937 9.92192 9.80039 9.85607 9.68318 9.73886C9.56597 9.62165 9.50013 9.46268 9.50013 9.29692V8.54692ZM5.84413 11.4529C6.41813 12.0114 7.26563 12.1169 8.00813 11.4529C8.67963 12.0939 9.64463 12.0229 10.2111 11.4529C10.2151 12.1809 9.77963 13.6364 8.00813 13.6364C6.23613 13.6364 5.82713 12.1809 5.84413 11.4529ZM13.1721 6.43542V4.30692C13.1721 4.23543 13.1517 4.16543 13.1132 4.10516C13.0748 4.04489 13.0199 3.99687 12.9551 3.96676C12.8902 3.93665 12.8181 3.92571 12.7473 3.93522C12.6764 3.94472 12.6097 3.97429 12.5551 4.02042L11.4401 4.96092C11.3854 5.0071 11.3413 5.06449 11.3107 5.1292C11.2801 5.19392 11.2637 5.26445 11.2627 5.33603C11.2617 5.40761 11.2761 5.47857 11.3049 5.54411C11.3337 5.60965 11.3762 5.66824 11.4296 5.71592L12.5471 6.71492C12.6011 6.76318 12.6679 6.79479 12.7394 6.80594C12.8109 6.81709 12.8841 6.80729 12.9502 6.77774C13.0163 6.74819 13.0724 6.70014 13.1118 6.6394C13.1512 6.57865 13.1721 6.50781 13.1721 6.43542ZM2.82813 4.30692V6.43542C2.82803 6.50785 2.84891 6.57876 2.88825 6.63958C2.92759 6.7004 2.98371 6.74853 3.04981 6.77814C3.11591 6.80775 3.18917 6.81759 3.26075 6.80646C3.33232 6.79533 3.39914 6.76371 3.45313 6.71542L4.57063 5.71592C4.62402 5.66824 4.66655 5.60965 4.69535 5.54411C4.72415 5.47857 4.73853 5.40761 4.73754 5.33603C4.73654 5.26445 4.72019 5.19392 4.68958 5.1292C4.65897 5.06449 4.61483 5.0071 4.56013 4.96092L3.44513 4.02042C3.39051 3.97429 3.32385 3.94472 3.25299 3.93522C3.18213 3.92571 3.11004 3.93665 3.04519 3.96676C2.98035 3.99687 2.92546 4.04489 2.88701 4.10516C2.84855 4.16543 2.82812 4.23543 2.82813 4.30692Z" fill="black"/>
<path d="M12.0411 15.4999C13.2801 15.4999 14.2701 14.5234 14.4651 13.3449L14.6126 13.4139C14.6423 13.4278 14.6745 13.4358 14.7073 13.4372C14.7401 13.4387 14.7729 13.4337 14.8038 13.4225C14.8346 13.4113 14.863 13.3942 14.8872 13.372C14.9115 13.3499 14.9311 13.3232 14.9451 13.2934C14.959 13.2637 14.9669 13.2315 14.9684 13.1987C14.9699 13.1659 14.9649 13.1331 14.9537 13.1022C14.9425 13.0713 14.9253 13.043 14.9032 13.0187C14.881 12.9945 14.8543 12.9748 14.8246 12.9609L14.5001 12.8099V10.6444L14.8246 10.4924C14.8543 10.4785 14.881 10.4589 14.9032 10.4346C14.9253 10.4104 14.9425 10.382 14.9537 10.3511C14.9649 10.3203 14.9699 10.2875 14.9684 10.2547C14.9669 10.2219 14.959 10.1897 14.9451 10.1599C14.9311 10.1302 14.9115 10.1035 14.8872 10.0813C14.863 10.0592 14.8346 10.042 14.8038 10.0308C14.7729 10.0196 14.7401 10.0146 14.7073 10.0161C14.6745 10.0176 14.6423 10.0255 14.6126 10.0394L14.5001 10.0924V3.00992C14.5001 1.88392 13.1441 1.41192 12.4031 2.15742L10.5726 3.99992H5.43455L3.60155 2.20292C2.86155 1.46642 1.50005 1.92792 1.50005 3.05842V10.0919L1.38705 10.0389C1.35723 10.0244 1.32483 10.016 1.29173 10.0142C1.25862 10.0123 1.22549 10.0171 1.19424 10.0282C1.163 10.0393 1.13427 10.0565 1.10973 10.0788C1.08519 10.101 1.06533 10.128 1.05131 10.158C1.03728 10.1881 1.02937 10.2206 1.02803 10.2537C1.0267 10.2869 1.03197 10.3199 1.04353 10.351C1.05509 10.3821 1.07272 10.4105 1.09539 10.4347C1.11805 10.4589 1.1453 10.4784 1.17555 10.4919L1.50005 10.6439V12.8089L1.17505 12.9609C1.14531 12.9748 1.1186 12.9945 1.09645 13.0187C1.07429 13.043 1.05713 13.0713 1.04594 13.1022C1.03475 13.1331 1.02975 13.1659 1.03123 13.1987C1.03271 13.2315 1.04063 13.2637 1.05455 13.2934C1.06847 13.3232 1.08812 13.3499 1.11236 13.372C1.1366 13.3942 1.16497 13.4113 1.19585 13.4225C1.22672 13.4337 1.2595 13.4387 1.29231 13.4372C1.32512 13.4358 1.35731 13.4278 1.38705 13.4139L1.52755 13.3484C1.70505 14.5509 2.71655 15.4999 3.95905 15.4999H12.0411ZM13.3641 2.81292C13.405 2.82672 13.4404 2.85342 13.4649 2.88903C13.4895 2.92463 13.5018 2.96722 13.5001 3.01042V10.5594L12.6751 10.9454C12.6453 10.9593 12.6186 10.979 12.5964 11.0032C12.5743 11.0275 12.5571 11.0558 12.5459 11.0867C12.5348 11.1176 12.5298 11.1504 12.5312 11.1832C12.5327 11.216 12.5406 11.2482 12.5546 11.2779C12.5685 11.3077 12.5881 11.3344 12.6124 11.3565C12.6366 11.3787 12.665 11.3958 12.6958 11.407C12.7267 11.4182 12.7595 11.4232 12.7923 11.4217C12.8251 11.4203 12.8573 11.4123 12.8871 11.3984L13.5001 11.1114V12.3414L12.8871 12.0549C12.8572 12.0396 12.8245 12.0305 12.7911 12.0281C12.7576 12.0257 12.724 12.0301 12.6922 12.041C12.6605 12.0519 12.6312 12.069 12.6063 12.0914C12.5813 12.1138 12.5611 12.141 12.5468 12.1714C12.5326 12.2018 12.5246 12.2348 12.5234 12.2683C12.5222 12.3018 12.5277 12.3353 12.5396 12.3666C12.5516 12.398 12.5698 12.4266 12.593 12.4508C12.6163 12.475 12.6442 12.4942 12.6751 12.5074L13.5001 12.8934V12.9204C13.5001 13.7929 12.8101 14.4999 12.0411 14.4999H3.95905C3.17405 14.4999 2.50005 13.8274 2.50005 12.9709V12.8934L3.32505 12.5074C3.38275 12.4779 3.42673 12.4272 3.44773 12.3658C3.46873 12.3045 3.4651 12.2375 3.4376 12.1788C3.41011 12.1201 3.3609 12.0744 3.30035 12.0513C3.23981 12.0282 3.17266 12.0295 3.11305 12.0549L2.50005 12.3414V11.1114L3.11305 11.3984C3.14288 11.4129 3.17528 11.4213 3.20838 11.4232C3.24148 11.425 3.27462 11.4202 3.30587 11.4092C3.33711 11.3981 3.36584 11.3809 3.39038 11.3586C3.41492 11.3363 3.43478 11.3093 3.4488 11.2793C3.46283 11.2493 3.47074 11.2167 3.47207 11.1836C3.47341 11.1505 3.46814 11.1174 3.45658 11.0864C3.44502 11.0553 3.42739 11.0268 3.40472 11.0026C3.38206 10.9784 3.35481 10.959 3.32455 10.9454L2.50005 10.5594V3.05842C2.49869 3.01514 2.5114 2.97259 2.53628 2.93716C2.56117 2.90172 2.59688 2.87532 2.63805 2.86192C2.6812 2.84343 2.7289 2.8383 2.77498 2.84722C2.82107 2.85613 2.86342 2.87867 2.89655 2.91192L5.02605 4.99992H10.9886L13.1126 2.86242C13.1446 2.82973 13.1857 2.80751 13.2306 2.79867C13.2755 2.78984 13.322 2.7948 13.3641 2.81292Z" fill="black"/>
</svg>
